#!OML:ASF E:\acrobat2\Project_11_07_03\Capture day 1\Session 1\Acrobat.ASF
:FULLY-SPECIFIED
:DEGREES
501
root 10.5684 6.00271 12.0455 -93.3826 4.45428 182.996
lowerback -0.530594 -2.46359 3.84985
upperback 0.0936402 -3.29736 -1.00082
thorax 0.116933 -1.64085 -3.19567
lowerneck 2.81113 -17.33 -3.03216
upperneck -27.7977 -18.5289 29.2574
head -5.34955 -10.3922 10.5977
rclavicle -1.59028e-015 -2.06736e-014
rhumerus 30.7153 -29.7476 -35.3265
rradius 113.91
rwrist -12.92
rhand -16.9557 -41.9893
rfingers 7.12502
rthumb 9.27806 -71.7651
lclavicle -1.59028e-015 -2.06736e-014
lhumerus 23.819 42.4939 2.31573
lradius 105.26
lwrist 28.5318
lhand -2.19709 -24.8944
lfingers 7.12502
lthumb 23.4843 3.6922
rfemur 0.476455 20.1262 -6.36852
rtibia 11.2317
rfoot 15.9601 -30.0437
rtoes 29.5399
lfemur -2.4207 -20.413 -0.473857
ltibia 16.5173
lfoot 34.6951 9.27796
ltoes 19.258
502
root 10.5725 6.00402 12.03 -93.1869 4.47501 182.961
lowerback -0.622083 -2.45794 3.86502
upperback 0.150426 -3.29449 -0.995116
thorax 0.226254 -1.63622 -3.20444
lowerneck 2.94661 -17.3095 -3.2475
upperneck -28.1072 -18.4481 29.3888
head -5.43653 -10.3488 10.7201
rclavicle 3.18055e-014 2.98177e-015
rhumerus 30.6913 -30.0877 -35.1591
rradius 114.262
rwrist -13.619
rhand -17.2195 -42.1256
rfingers 7.12502
rthumb 9.02356 -71.9126
lclavicle 3.18055e-014 2.98177e-015
lhumerus 23.5505 42.8957 2.205
lradius 105.512
lwrist 29.0652
lhand -2.15652 -24.8526
lfingers 7.12502
lthumb 23.5233 3.72897
rfemur 0.375624 20.2522 -6.39575
rtibia 11.4119
rfoot 15.5192 -29.1919
rtoes 27.3609
lfemur -2.60319 -20.252 -0.377262
ltibia 16.3408
lfoot 35.6871 11.5375
ltoes 24.0869
503
root 10.5774 6.00855 12.0104 -92.9321 4.49105 182.884
lowerback -0.758142 -2.46157 3.88337
upperback 0.176633 -3.30568 -0.976456
thorax 0.328547 -1.6393 -3.20294
lowerneck 3.00664 -17.2923 -3.4558
upperneck -28.2753 -18.4201 29.4187
head -5.47195 -10.3194 10.7812
rclavicle -2.38542e-014 -9.24349e-015
rhumerus 30.6717 -30.3886 -34.9724
rradius 114.597
rwrist -14.3261
rhand -17.4967 -42.2737
rfingers 7.12502
rthumb 8.75607 -72.0721
lclavicle -2.38542e-014 -9.24349e-015
lhumerus 23.258 43.2675 2.11027
lradius 105.758
lwrist 29.5766
lhand -2.12425 -24.874
lfingers 7.12502
lthumb 23.5542 3.70363
rfemur 0.207506 20.3612 -6.44723
rtibia 11.5512
rfoot 15.4883 -28.1619
rtoes 24.6235
lfemur -2.85294 -20.077 -0.263328
ltibia 16.1984
lfoot 36.2693 13.4161
ltoes 29.1968
504
root 10.5832 6.0152 11.9891 -92.6131 4.48808 182.769
lowerback -0.957838 -2.47201 3.92375
upperback 0.175498 -3.32893 -0.940593
thorax 0.437179 -1.64879 -3.19849
lowerneck 3.00908 -17.2769 -3.674
upperneck -28.3367 -18.4317 29.3745
head -5.46587 -10.2993 10.798
rclavicle 2.22639e-014 -3.17062e-014
rhumerus 30.6493 -30.6488 -34.7677
rradius 114.925
rwrist -15.0272
rhand -17.7891 -42.4303
rfingers 7.12502
rthumb 8.47384 -72.2403
lclavicle 2.22639e-014 -3.17062e-014
lhumerus 22.9501 43.6082 2.0331
lradius 105.989
lwrist 30.0594
lhand -2.11652 -24.923
lfingers 7.12502
lthumb 23.5616 3.65371
rfemur 0.0259183 20.4488 -6.51564
rtibia 11.5524
rfoot 15.5042 -27.2121
rtoes 22.3602
lfemur -3.22545 -19.9415 -0.109784
ltibia 16.158
lfoot 36.5007 14.6013
ltoes 34.4638
505
root 10.5898 6.02297 11.9657 -92.2568 4.45872 182.656
lowerback -1.1936 -2.47757 3.9949
upperback 0.153488 -3.34808 -0.887901
thorax 0.544178 -1.65668 -3.19522
lowerneck 3.02673 -17.2515 -3.89984
upperneck -28.3792 -18.4407 29.2867
head -5.4621 -10.2755 10.8021
rclavicle 9.54166e-015 -1.61016e-014
rhumerus 30.601 -30.8663 -34.5475
rradius 115.258
rwrist -15.7046
rhand -18.0923 -42.576
rfingers 7.12502
rthumb 8.18125 -72.3976
lclavicle 9.54166e-015 -1.61016e-014
lhumerus 22.6351 43.9129 1.97074
lradius 106.202
lwrist 30.5085
lhand -2.13563 -24.9645
lfingers 7.12502
lthumb 23.5433 3.61454
rfemur -0.128214 20.5153 -6.58792
rtibia 11.3497
rfoot 15.5634 -26.4342
rtoes 20.9344
lfemur -3.71901 -19.8913 0.0751557
ltibia 16.2689
lfoot 36.513 14.7892
ltoes 36.0377
506
root 10.5974 6.03107 11.942 -91.876 4.41211 182.552
lowerback -1.46093 -2.47626 4.0843
upperback 0.115081 -3.36027 -0.821832
thorax 0.652362 -1.66129 -3.18956
lowerneck 3.10578 -17.2105 -4.12696
upperneck -28.4694 -18.4199 29.1791
head -5.49198 -10.2397 10.8157
rclavicle 3.18055e-014 -8.29926e-015
rhumerus 30.5236 -31.0407 -34.324
rradius 115.595
rwrist -16.3368
rhand -18.396 -42.6893
rfingers 7.12502
rthumb 7.88812 -72.5221
lclavicle 3.18055e-014 -8.29926e-015
lhumerus 22.3174 44.1763 1.93552
lradius 106.401
lwrist 30.9128
lhand -2.17983 -24.9743
lfingers 7.12502
lthumb 23.5009 3.6102
rfemur -0.248962 20.5459 -6.66917
rtibia 10.9716
rfoot 15.5508 -25.9255
rtoes 20.7728
lfemur -4.30072 -19.9242 0.276846
ltibia 16.5022
lfoot 36.3546 14.1999
ltoes 40.507
507
root 10.6057 6.03917 11.9185 -91.4912 4.35916 182.466
lowerback -1.74133 -2.46688 4.17994
upperback 0.0697911 -3.36307 -0.745688
thorax 0.761825 -1.66123 -3.17745
lowerneck 3.26431 -17.1528 -4.37726
upperneck -28.6313 -18.3673 29.0553
head -5.56325 -10.1895 10.8476
rclavicle 0 2.28602e-015
rhumerus 30.4365 -31.1808 -34.1028
rradius 115.921
rwrist -16.9055
rhand -18.69 -42.7439
rfingers 7.12502
rthumb 7.60434 -72.5872
lclavicle 0 2.28602e-015
lhumerus 22.0019 44.4044 1.93374
lradius 106.59
lwrist 31.2619
lhand -2.24308 -24.9494
lfingers 7.12502
lthumb 23.4402 3.64279
rfemur -0.364463 20.5018 -6.761
rtibia 10.4837
rfoot 15.7663 -25.5285
rtoes 20.9828
lfemur -4.91128 -20.0328 0.475734
ltibia 16.8061
lfoot 36.03 13.3408
ltoes 47.5283
